<svg width="31" height="28" viewBox="0 0 31 28" fill="none"><path d="M13.2 6.272a.963.963 0 00-.962.962v7.73c0 .298.133.597.398.762l4.412 3.318a.9.9 0 00.564.199.888.888 0 00.763-.398c.331-.432.232-1.029-.2-1.36l-4.013-2.986V7.234a.963.963 0 00-.962-.962z" fill="#fff"/><path d="M13.83 28c4.28 0 8.227-1.957 10.848-5.34a.988.988 0 00-.166-1.36.987.987 0 00-1.36.165c-2.256 2.92-5.64 4.611-9.322 4.611-6.501 0-11.776-5.274-11.776-11.776S7.33 2.524 13.83 2.524c5.971 0 10.914 4.478 11.677 10.25l-1.393-1.36a.982.982 0 00-1.36 0 .982.982 0 000 1.36l2.852 2.853c.2.199.432.265.697.265.265 0 .498-.1.697-.265l2.852-2.853a.982.982 0 000-1.36.982.982 0 00-1.36 0l-1.061 1.062C26.502 5.775 20.763.6 13.83.6 6.266.6.13 6.737.13 14.3S6.266 28 13.83 28z" fill="#fff"/></svg>