<svg width="33" height="20" viewBox="0 0 33 20" fill="none"><path d="M31.174 11.304h-29.4c-.696 0-1.266.572-1.266 1.268 0 .698.559 1.269 1.266 1.269H3.21c.524 2.993 3.124 5.279 6.272 5.279h14.016c3.136 0 5.747-2.286 6.272-5.28h1.437a1.27 1.27 0 001.266-1.268c0-.696-.593-1.268-1.3-1.268zm-7.698 5.29H9.47a3.843 3.843 0 01-3.683-2.753h21.394c-.49 1.588-1.961 2.754-3.706 2.754zM10.247 6.825a1.266 1.266 0 00.422 1.737 1.246 1.246 0 001.722-.423c.502-.823 1.038-2.571-.114-3.92-.171-.194-.068-1.016.194-1.633a1.27 1.27 0 00-.639-1.669c-.638-.285-1.38 0-1.665.64-.125.275-1.152 2.731.194 4.297.217.262-.046.857-.114.97zm5.155 0a1.266 1.266 0 00.422 1.736 1.247 1.247 0 001.722-.423c.502-.822 1.038-2.57-.114-3.919-.171-.194-.069-1.028.194-1.634a1.254 1.254 0 00-.64-1.656 1.255 1.255 0 00-1.664.64c-.126.274-1.152 2.73.194 4.296.216.251-.046.845-.114.96zm5.143 0a1.266 1.266 0 00.422 1.736 1.247 1.247 0 001.722-.423c.502-.822 1.038-2.57-.114-3.919-.171-.194-.069-1.028.194-1.634A1.254 1.254 0 0022.13.93c-.639-.286-1.38 0-1.665.64-.125.274-1.152 2.73.194 4.296.217.251-.046.845-.114.96z" fill="#fff"/></svg>